<mxfile host="Electron" modified="2024-07-30T19:31:13.363Z" agent="Mozilla/5.0 (Windows NT 10.0; Win64; x64) AppleWebKit/537.36 (KHTML, like Gecko) draw.io/22.1.16 Chrome/120.0.6099.109 Electron/28.1.0 Safari/537.36" etag="ojGXErQyZQQMrbVApXoT" version="22.1.16" type="device">
  <diagram name="Page-1" id="ieYIYG2PRpRT-nF8fvGf">
    <mxGraphModel dx="1418" dy="640" grid="1" gridSize="10" guides="1" tooltips="1" connect="1" arrows="1" fold="1" page="1" pageScale="1" pageWidth="800" pageHeight="300" math="0" shadow="0">
      <root>
        <mxCell id="0" />
        <mxCell id="1" parent="0" />
        <mxCell id="56aDfkN4Uit5-znUoqk2-91" value="" style="rounded=0;whiteSpace=wrap;html=1;dashed=1;fillColor=none;" parent="1" vertex="1">
          <mxGeometry x="515" y="433" width="210" height="70" as="geometry" />
        </mxCell>
        <mxCell id="56aDfkN4Uit5-znUoqk2-90" value="" style="rounded=0;whiteSpace=wrap;html=1;dashed=1;fillColor=none;" parent="1" vertex="1">
          <mxGeometry x="515" y="333" width="210" height="70" as="geometry" />
        </mxCell>
        <mxCell id="56aDfkN4Uit5-znUoqk2-88" value="" style="rounded=0;whiteSpace=wrap;html=1;dashed=1;fillColor=none;" parent="1" vertex="1">
          <mxGeometry x="297.5" y="333" width="210" height="250" as="geometry" />
        </mxCell>
        <mxCell id="56aDfkN4Uit5-znUoqk2-86" value="" style="rounded=0;whiteSpace=wrap;html=1;dashed=1;fillColor=none;" parent="1" vertex="1">
          <mxGeometry x="75" y="333" width="210" height="250" as="geometry" />
        </mxCell>
        <mxCell id="56aDfkN4Uit5-znUoqk2-13" style="edgeStyle=orthogonalEdgeStyle;rounded=0;orthogonalLoop=1;jettySize=auto;html=1;exitX=0.5;exitY=1;exitDx=0;exitDy=0;entryX=0.5;entryY=1;entryDx=0;entryDy=0;startArrow=blockThin;startFill=1;endArrow=blockThin;endFill=1;curved=1;" parent="1" source="56aDfkN4Uit5-znUoqk2-6" target="56aDfkN4Uit5-znUoqk2-7" edge="1">
          <mxGeometry relative="1" as="geometry" />
        </mxCell>
        <mxCell id="56aDfkN4Uit5-znUoqk2-6" value="3" style="whiteSpace=wrap;html=1;aspect=fixed;fillColor=#dae8fc;strokeColor=#6c8ebf;" parent="1" vertex="1">
          <mxGeometry x="85" y="343" width="30" height="30" as="geometry" />
        </mxCell>
        <mxCell id="56aDfkN4Uit5-znUoqk2-7" value="5" style="whiteSpace=wrap;html=1;aspect=fixed;fillColor=#dae8fc;strokeColor=#6c8ebf;" parent="1" vertex="1">
          <mxGeometry x="125" y="343" width="30" height="30" as="geometry" />
        </mxCell>
        <mxCell id="56aDfkN4Uit5-znUoqk2-8" value="8" style="whiteSpace=wrap;html=1;aspect=fixed;" parent="1" vertex="1">
          <mxGeometry x="165" y="343" width="30" height="30" as="geometry" />
        </mxCell>
        <mxCell id="56aDfkN4Uit5-znUoqk2-9" value="4" style="whiteSpace=wrap;html=1;aspect=fixed;" parent="1" vertex="1">
          <mxGeometry x="205" y="343" width="30" height="30" as="geometry" />
        </mxCell>
        <mxCell id="56aDfkN4Uit5-znUoqk2-10" value="2" style="whiteSpace=wrap;html=1;aspect=fixed;" parent="1" vertex="1">
          <mxGeometry x="245" y="343" width="30" height="30" as="geometry" />
        </mxCell>
        <mxCell id="56aDfkN4Uit5-znUoqk2-15" value="3" style="whiteSpace=wrap;html=1;aspect=fixed;" parent="1" vertex="1">
          <mxGeometry x="85" y="403" width="30" height="30" as="geometry" />
        </mxCell>
        <mxCell id="56aDfkN4Uit5-znUoqk2-16" value="5" style="whiteSpace=wrap;html=1;aspect=fixed;fillColor=#dae8fc;strokeColor=#6c8ebf;" parent="1" vertex="1">
          <mxGeometry x="125" y="403" width="30" height="30" as="geometry" />
        </mxCell>
        <mxCell id="56aDfkN4Uit5-znUoqk2-17" value="8" style="whiteSpace=wrap;html=1;aspect=fixed;fillColor=#dae8fc;strokeColor=#6c8ebf;" parent="1" vertex="1">
          <mxGeometry x="165" y="403" width="30" height="30" as="geometry" />
        </mxCell>
        <mxCell id="56aDfkN4Uit5-znUoqk2-18" value="4" style="whiteSpace=wrap;html=1;aspect=fixed;" parent="1" vertex="1">
          <mxGeometry x="205" y="403" width="30" height="30" as="geometry" />
        </mxCell>
        <mxCell id="56aDfkN4Uit5-znUoqk2-19" value="2" style="whiteSpace=wrap;html=1;aspect=fixed;" parent="1" vertex="1">
          <mxGeometry x="245" y="403" width="30" height="30" as="geometry" />
        </mxCell>
        <mxCell id="56aDfkN4Uit5-znUoqk2-22" value="3" style="whiteSpace=wrap;html=1;aspect=fixed;" parent="1" vertex="1">
          <mxGeometry x="85" y="463" width="30" height="30" as="geometry" />
        </mxCell>
        <mxCell id="56aDfkN4Uit5-znUoqk2-23" value="5" style="whiteSpace=wrap;html=1;aspect=fixed;" parent="1" vertex="1">
          <mxGeometry x="125" y="463" width="30" height="30" as="geometry" />
        </mxCell>
        <mxCell id="56aDfkN4Uit5-znUoqk2-28" style="edgeStyle=orthogonalEdgeStyle;rounded=0;orthogonalLoop=1;jettySize=auto;html=1;exitX=0.5;exitY=1;exitDx=0;exitDy=0;entryX=0.5;entryY=1;entryDx=0;entryDy=0;curved=1;startArrow=blockThin;startFill=1;endArrow=blockThin;endFill=1;" parent="1" source="56aDfkN4Uit5-znUoqk2-24" target="56aDfkN4Uit5-znUoqk2-25" edge="1">
          <mxGeometry relative="1" as="geometry" />
        </mxCell>
        <mxCell id="56aDfkN4Uit5-znUoqk2-24" value="4" style="whiteSpace=wrap;html=1;aspect=fixed;fillColor=#dae8fc;strokeColor=#6c8ebf;" parent="1" vertex="1">
          <mxGeometry x="165" y="463" width="30" height="30" as="geometry" />
        </mxCell>
        <mxCell id="56aDfkN4Uit5-znUoqk2-25" value="8" style="whiteSpace=wrap;html=1;aspect=fixed;fillColor=#dae8fc;strokeColor=#6c8ebf;" parent="1" vertex="1">
          <mxGeometry x="205" y="463" width="30" height="30" as="geometry" />
        </mxCell>
        <mxCell id="56aDfkN4Uit5-znUoqk2-26" value="2" style="whiteSpace=wrap;html=1;aspect=fixed;" parent="1" vertex="1">
          <mxGeometry x="245" y="463" width="30" height="30" as="geometry" />
        </mxCell>
        <mxCell id="56aDfkN4Uit5-znUoqk2-29" value="3" style="whiteSpace=wrap;html=1;aspect=fixed;" parent="1" vertex="1">
          <mxGeometry x="85" y="523" width="30" height="30" as="geometry" />
        </mxCell>
        <mxCell id="56aDfkN4Uit5-znUoqk2-30" value="5" style="whiteSpace=wrap;html=1;aspect=fixed;" parent="1" vertex="1">
          <mxGeometry x="125" y="523" width="30" height="30" as="geometry" />
        </mxCell>
        <mxCell id="56aDfkN4Uit5-znUoqk2-31" style="edgeStyle=orthogonalEdgeStyle;rounded=0;orthogonalLoop=1;jettySize=auto;html=1;exitX=0.5;exitY=1;exitDx=0;exitDy=0;entryX=0.5;entryY=1;entryDx=0;entryDy=0;curved=1;startArrow=blockThin;startFill=1;endArrow=blockThin;endFill=1;" parent="1" source="56aDfkN4Uit5-znUoqk2-32" target="56aDfkN4Uit5-znUoqk2-33" edge="1">
          <mxGeometry relative="1" as="geometry" />
        </mxCell>
        <mxCell id="56aDfkN4Uit5-znUoqk2-32" value="2" style="whiteSpace=wrap;html=1;aspect=fixed;fillColor=#dae8fc;strokeColor=#6c8ebf;" parent="1" vertex="1">
          <mxGeometry x="205" y="523" width="30" height="30" as="geometry" />
        </mxCell>
        <mxCell id="56aDfkN4Uit5-znUoqk2-33" value="8" style="whiteSpace=wrap;html=1;aspect=fixed;fillColor=#dae8fc;strokeColor=#6c8ebf;" parent="1" vertex="1">
          <mxGeometry x="245" y="523" width="30" height="30" as="geometry" />
        </mxCell>
        <mxCell id="56aDfkN4Uit5-znUoqk2-34" value="4" style="whiteSpace=wrap;html=1;aspect=fixed;" parent="1" vertex="1">
          <mxGeometry x="165" y="523" width="30" height="30" as="geometry" />
        </mxCell>
        <mxCell id="56aDfkN4Uit5-znUoqk2-41" value="3" style="whiteSpace=wrap;html=1;aspect=fixed;fillColor=#dae8fc;strokeColor=#6c8ebf;" parent="1" vertex="1">
          <mxGeometry x="305" y="343" width="30" height="30" as="geometry" />
        </mxCell>
        <mxCell id="56aDfkN4Uit5-znUoqk2-42" value="5" style="whiteSpace=wrap;html=1;aspect=fixed;fillColor=#dae8fc;strokeColor=#6c8ebf;" parent="1" vertex="1">
          <mxGeometry x="345" y="343" width="30" height="30" as="geometry" />
        </mxCell>
        <mxCell id="56aDfkN4Uit5-znUoqk2-43" value="4" style="whiteSpace=wrap;html=1;aspect=fixed;" parent="1" vertex="1">
          <mxGeometry x="385" y="343" width="30" height="30" as="geometry" />
        </mxCell>
        <mxCell id="56aDfkN4Uit5-znUoqk2-44" value="2" style="whiteSpace=wrap;html=1;aspect=fixed;" parent="1" vertex="1">
          <mxGeometry x="425" y="343" width="30" height="30" as="geometry" />
        </mxCell>
        <mxCell id="56aDfkN4Uit5-znUoqk2-45" value="8" style="whiteSpace=wrap;html=1;aspect=fixed;" parent="1" vertex="1">
          <mxGeometry x="465" y="343" width="30" height="30" as="geometry" />
        </mxCell>
        <mxCell id="56aDfkN4Uit5-znUoqk2-46" value="3" style="whiteSpace=wrap;html=1;aspect=fixed;" parent="1" vertex="1">
          <mxGeometry x="305" y="403" width="30" height="30" as="geometry" />
        </mxCell>
        <mxCell id="56aDfkN4Uit5-znUoqk2-49" value="2" style="whiteSpace=wrap;html=1;aspect=fixed;" parent="1" vertex="1">
          <mxGeometry x="425" y="403" width="30" height="30" as="geometry" />
        </mxCell>
        <mxCell id="56aDfkN4Uit5-znUoqk2-50" value="8" style="whiteSpace=wrap;html=1;aspect=fixed;" parent="1" vertex="1">
          <mxGeometry x="465" y="403" width="30" height="30" as="geometry" />
        </mxCell>
        <mxCell id="56aDfkN4Uit5-znUoqk2-51" value="3" style="whiteSpace=wrap;html=1;aspect=fixed;" parent="1" vertex="1">
          <mxGeometry x="305" y="463" width="30" height="30" as="geometry" />
        </mxCell>
        <mxCell id="56aDfkN4Uit5-znUoqk2-52" value="4" style="whiteSpace=wrap;html=1;aspect=fixed;" parent="1" vertex="1">
          <mxGeometry x="345" y="463" width="30" height="30" as="geometry" />
        </mxCell>
        <mxCell id="56aDfkN4Uit5-znUoqk2-56" value="8" style="whiteSpace=wrap;html=1;aspect=fixed;" parent="1" vertex="1">
          <mxGeometry x="465" y="463" width="30" height="30" as="geometry" />
        </mxCell>
        <mxCell id="56aDfkN4Uit5-znUoqk2-57" value="3" style="whiteSpace=wrap;html=1;aspect=fixed;" parent="1" vertex="1">
          <mxGeometry x="305" y="523" width="30" height="30" as="geometry" />
        </mxCell>
        <mxCell id="56aDfkN4Uit5-znUoqk2-58" value="4" style="whiteSpace=wrap;html=1;aspect=fixed;" parent="1" vertex="1">
          <mxGeometry x="345" y="523" width="30" height="30" as="geometry" />
        </mxCell>
        <mxCell id="56aDfkN4Uit5-znUoqk2-60" value="5" style="whiteSpace=wrap;html=1;aspect=fixed;fillColor=#dae8fc;strokeColor=#6c8ebf;" parent="1" vertex="1">
          <mxGeometry x="425" y="523" width="30" height="30" as="geometry" />
        </mxCell>
        <mxCell id="56aDfkN4Uit5-znUoqk2-61" value="8" style="whiteSpace=wrap;html=1;aspect=fixed;fillColor=#dae8fc;strokeColor=#6c8ebf;" parent="1" vertex="1">
          <mxGeometry x="465" y="523" width="30" height="30" as="geometry" />
        </mxCell>
        <mxCell id="56aDfkN4Uit5-znUoqk2-62" value="2" style="whiteSpace=wrap;html=1;aspect=fixed;" parent="1" vertex="1">
          <mxGeometry x="385" y="523" width="30" height="30" as="geometry" />
        </mxCell>
        <mxCell id="56aDfkN4Uit5-znUoqk2-63" style="edgeStyle=orthogonalEdgeStyle;rounded=0;orthogonalLoop=1;jettySize=auto;html=1;exitX=0.5;exitY=1;exitDx=0;exitDy=0;entryX=0.5;entryY=1;entryDx=0;entryDy=0;curved=1;startArrow=blockThin;startFill=1;endArrow=blockThin;endFill=1;" parent="1" source="56aDfkN4Uit5-znUoqk2-64" target="56aDfkN4Uit5-znUoqk2-65" edge="1">
          <mxGeometry relative="1" as="geometry" />
        </mxCell>
        <mxCell id="56aDfkN4Uit5-znUoqk2-64" value="4" style="whiteSpace=wrap;html=1;aspect=fixed;fillColor=#dae8fc;strokeColor=#6c8ebf;" parent="1" vertex="1">
          <mxGeometry x="345" y="403" width="30" height="30" as="geometry" />
        </mxCell>
        <mxCell id="56aDfkN4Uit5-znUoqk2-65" value="5" style="whiteSpace=wrap;html=1;aspect=fixed;fillColor=#dae8fc;strokeColor=#6c8ebf;" parent="1" vertex="1">
          <mxGeometry x="385" y="403" width="30" height="30" as="geometry" />
        </mxCell>
        <mxCell id="56aDfkN4Uit5-znUoqk2-66" style="edgeStyle=orthogonalEdgeStyle;rounded=0;orthogonalLoop=1;jettySize=auto;html=1;exitX=0.5;exitY=1;exitDx=0;exitDy=0;entryX=0.5;entryY=1;entryDx=0;entryDy=0;curved=1;startArrow=blockThin;startFill=1;endArrow=blockThin;endFill=1;" parent="1" source="56aDfkN4Uit5-znUoqk2-67" target="56aDfkN4Uit5-znUoqk2-68" edge="1">
          <mxGeometry relative="1" as="geometry" />
        </mxCell>
        <mxCell id="56aDfkN4Uit5-znUoqk2-67" value="2" style="whiteSpace=wrap;html=1;aspect=fixed;fillColor=#dae8fc;strokeColor=#6c8ebf;" parent="1" vertex="1">
          <mxGeometry x="385" y="463" width="30" height="30" as="geometry" />
        </mxCell>
        <mxCell id="56aDfkN4Uit5-znUoqk2-68" value="5" style="whiteSpace=wrap;html=1;aspect=fixed;fillColor=#dae8fc;strokeColor=#6c8ebf;" parent="1" vertex="1">
          <mxGeometry x="425" y="463" width="30" height="30" as="geometry" />
        </mxCell>
        <mxCell id="56aDfkN4Uit5-znUoqk2-69" value="3" style="whiteSpace=wrap;html=1;aspect=fixed;" parent="1" vertex="1">
          <mxGeometry x="525" y="343" width="30" height="30" as="geometry" />
        </mxCell>
        <mxCell id="56aDfkN4Uit5-znUoqk2-71" value="5" style="whiteSpace=wrap;html=1;aspect=fixed;" parent="1" vertex="1">
          <mxGeometry x="645" y="343" width="30" height="30" as="geometry" />
        </mxCell>
        <mxCell id="56aDfkN4Uit5-znUoqk2-72" value="8" style="whiteSpace=wrap;html=1;aspect=fixed;" parent="1" vertex="1">
          <mxGeometry x="685" y="343" width="30" height="30" as="geometry" />
        </mxCell>
        <mxCell id="56aDfkN4Uit5-znUoqk2-77" style="edgeStyle=orthogonalEdgeStyle;rounded=0;orthogonalLoop=1;jettySize=auto;html=1;exitX=0.5;exitY=1;exitDx=0;exitDy=0;entryX=0.5;entryY=1;entryDx=0;entryDy=0;curved=1;startArrow=blockThin;startFill=1;endArrow=blockThin;endFill=1;" parent="1" source="56aDfkN4Uit5-znUoqk2-78" target="56aDfkN4Uit5-znUoqk2-79" edge="1">
          <mxGeometry relative="1" as="geometry" />
        </mxCell>
        <mxCell id="56aDfkN4Uit5-znUoqk2-78" value="2" style="whiteSpace=wrap;html=1;aspect=fixed;fillColor=#dae8fc;strokeColor=#6c8ebf;" parent="1" vertex="1">
          <mxGeometry x="565" y="343" width="30" height="30" as="geometry" />
        </mxCell>
        <mxCell id="56aDfkN4Uit5-znUoqk2-79" value="4" style="whiteSpace=wrap;html=1;aspect=fixed;fillColor=#dae8fc;strokeColor=#6c8ebf;" parent="1" vertex="1">
          <mxGeometry x="605" y="343" width="30" height="30" as="geometry" />
        </mxCell>
        <mxCell id="56aDfkN4Uit5-znUoqk2-80" value="4" style="whiteSpace=wrap;html=1;aspect=fixed;" parent="1" vertex="1">
          <mxGeometry x="605" y="443" width="30" height="30" as="geometry" />
        </mxCell>
        <mxCell id="56aDfkN4Uit5-znUoqk2-81" value="5" style="whiteSpace=wrap;html=1;aspect=fixed;" parent="1" vertex="1">
          <mxGeometry x="645" y="443" width="30" height="30" as="geometry" />
        </mxCell>
        <mxCell id="56aDfkN4Uit5-znUoqk2-82" value="8" style="whiteSpace=wrap;html=1;aspect=fixed;" parent="1" vertex="1">
          <mxGeometry x="685" y="443" width="30" height="30" as="geometry" />
        </mxCell>
        <mxCell id="56aDfkN4Uit5-znUoqk2-83" style="edgeStyle=orthogonalEdgeStyle;rounded=0;orthogonalLoop=1;jettySize=auto;html=1;exitX=0.5;exitY=1;exitDx=0;exitDy=0;entryX=0.5;entryY=1;entryDx=0;entryDy=0;curved=1;startArrow=blockThin;startFill=1;endArrow=blockThin;endFill=1;" parent="1" source="56aDfkN4Uit5-znUoqk2-84" target="56aDfkN4Uit5-znUoqk2-85" edge="1">
          <mxGeometry relative="1" as="geometry" />
        </mxCell>
        <mxCell id="56aDfkN4Uit5-znUoqk2-84" value="2" style="whiteSpace=wrap;html=1;aspect=fixed;fillColor=#dae8fc;strokeColor=#6c8ebf;" parent="1" vertex="1">
          <mxGeometry x="525" y="443" width="30" height="30" as="geometry" />
        </mxCell>
        <mxCell id="56aDfkN4Uit5-znUoqk2-85" value="3" style="whiteSpace=wrap;html=1;aspect=fixed;fillColor=#dae8fc;strokeColor=#6c8ebf;" parent="1" vertex="1">
          <mxGeometry x="565" y="443" width="30" height="30" as="geometry" />
        </mxCell>
        <mxCell id="56aDfkN4Uit5-znUoqk2-87" value="Cycle 1" style="text;strokeColor=none;align=center;fillColor=none;html=1;verticalAlign=middle;whiteSpace=wrap;rounded=0;" parent="1" vertex="1">
          <mxGeometry x="70" y="310" width="50" height="30" as="geometry" />
        </mxCell>
        <mxCell id="56aDfkN4Uit5-znUoqk2-89" value="Cycle 2" style="text;strokeColor=none;align=center;fillColor=none;html=1;verticalAlign=middle;whiteSpace=wrap;rounded=0;" parent="1" vertex="1">
          <mxGeometry x="293.5" y="310" width="50" height="30" as="geometry" />
        </mxCell>
        <mxCell id="56aDfkN4Uit5-znUoqk2-92" value="Cycle 3" style="text;strokeColor=none;align=center;fillColor=none;html=1;verticalAlign=middle;whiteSpace=wrap;rounded=0;" parent="1" vertex="1">
          <mxGeometry x="510.5" y="310" width="50" height="30" as="geometry" />
        </mxCell>
        <mxCell id="56aDfkN4Uit5-znUoqk2-93" value="Cycle 4" style="text;strokeColor=none;align=center;fillColor=none;html=1;verticalAlign=middle;whiteSpace=wrap;rounded=0;" parent="1" vertex="1">
          <mxGeometry x="509.5" y="410" width="50" height="30" as="geometry" />
        </mxCell>
      </root>
    </mxGraphModel>
  </diagram>
</mxfile>
